<?xml version="1.0" encoding="UTF-8"?>
<svg width="2032px" height="384px" viewBox="0 0 2032 384" version="1.1" xmlns="http://www.w3.org/2000/svg" xmlns:xlink="http://www.w3.org/1999/xlink">
    <!-- Generator: Sketch 63.1 (92452) - https://sketch.com -->
    <title>top-logo-black</title>
    <desc>Created with Sketch.</desc>
    <g id="top-logo-black" stroke="none" stroke-width="1" fill="none" fill-rule="evenodd">
        <path d="M200.848,28 L356,183.151 L356,200.849 L200.848,356 L183.15,356 L28,200.849 L28,183.151 L183.15,28 L200.848,28 Z" id="Combined-Shape" fill="#FFFFFF" fill-rule="nonzero"></path>
        <path d="M603.491528,95.1285211 L603.491528,132.810415 C585.083506,117.428116 566.037868,109.737081 546.354042,109.737081 C524.665382,109.737081 506.394327,117.519134 491.540328,133.083472 C476.595201,148.556791 469.12275,167.488568 469.12275,189.87937 C469.12275,211.997114 476.595201,230.655837 491.540328,245.856097 C506.485455,261.056357 524.802074,268.656373 546.490734,268.656373 C557.69958,268.656373 567.222399,266.83601 575.059478,263.195229 C579.433661,261.374839 583.967252,258.917349 588.660387,255.822685 C593.353521,252.728021 598.297185,248.996277 603.491528,244.62734 L603.491528,282.991877 C585.265764,293.277083 566.128998,298.419608 546.080657,298.419608 C515.917016,298.419608 490.173509,287.907011 468.849365,266.881502 C447.616349,245.673953 437,220.097851 437,190.152428 C437,163.301668 445.884927,139.363893 463.655048,118.338383 C485.525965,92.5798584 513.821041,79.7007892 548.541122,79.7007892 C567.495918,79.7007892 585.812537,84.843315 603.491528,95.1285211 Z M668.557183,161.61795 L668.557183,294.596808 L637.801359,294.596808 L637.801359,161.61795 L668.557183,161.61795 Z M633.153812,106.323866 C633.153812,100.953715 635.113053,96.3117885 639.031592,92.3979491 C642.950131,88.4841096 647.643195,86.5272192 653.110925,86.5272192 C658.669783,86.5272192 663.408411,88.4841096 667.32695,92.3979491 C671.24549,96.220769 673.20473,100.908204 673.20473,106.460395 C673.20473,112.012586 671.24549,116.74553 667.32695,120.65937 C663.49954,124.573209 658.806476,126.530099 653.247617,126.530099 C647.688759,126.530099 642.950131,124.573209 639.031592,120.65937 C635.113053,116.74553 633.153812,111.967077 633.153812,106.323866 Z M828.760854,235.343395 L733.349453,235.343395 C734.169612,246.265737 737.723583,254.957971 744.011472,261.420358 C750.299361,267.791724 758.364141,270.97736 768.206054,270.97736 C775.860875,270.97736 782.194233,269.156996 787.206318,265.516216 C792.127275,261.875435 797.731613,255.140091 804.019502,245.309983 L829.991087,259.782014 C825.981419,266.608478 821.743992,272.456395 817.27868,277.32594 C812.813367,282.195484 808.029176,286.200283 802.925962,289.340456 C797.822748,292.48063 792.309537,294.778838 786.386163,296.235151 C780.46279,297.691463 774.038304,298.419608 767.112513,298.419608 C747.24643,298.419608 731.299125,292.048337 719.27012,279.305604 C707.241115,266.471852 701.226703,249.451456 701.226703,228.243907 C701.226703,207.218398 707.05886,190.198002 718.72335,177.18221 C730.478968,164.348458 746.061763,157.931678 765.472203,157.931678 C785.0649,157.931678 800.556567,164.166421 811.94767,176.636096 C823.247644,189.014751 828.897547,206.171674 828.897547,228.107379 L828.760854,235.343395 Z M797.184875,210.222132 C792.90182,193.838618 782.558854,185.646984 766.155665,185.646984 C762.419384,185.646984 758.910977,186.215847 755.630339,187.353591 C752.349701,188.491335 749.365277,190.129662 746.676977,192.268621 C743.988676,194.40758 741.687708,196.978843 739.774003,199.982487 C737.860298,202.986131 736.402258,206.399312 735.399841,210.222132 L797.184875,210.222132 Z M893.143046,64 L893.143046,294.596808 L862.387222,294.596808 L862.387222,64 L893.143046,64 Z M987.05083,64 L1017.94335,64 L1017.94335,112.604182 L1061.41158,112.604182 L1061.41158,142.367417 L1017.94335,142.367417 L1017.94335,313.331771 L987.05083,313.331771 L987.05083,142.367417 L943.582598,142.367417 L943.582598,112.604182 L987.05083,112.604182 L987.05083,64 Z M1236.78812,115.198225 L1210.95323,130.489429 C1206.1234,122.115633 1201.52147,116.654543 1197.14728,114.105997 C1192.59084,111.193372 1186.71312,109.737081 1179.51394,109.737081 C1170.67445,109.737081 1163.33869,112.240081 1157.50644,117.246155 C1151.6742,122.161209 1148.75812,128.350443 1148.75812,135.814044 C1148.75812,146.09925 1156.41282,154.381903 1171.72247,160.66225 L1192.77312,169.263552 C1209.90534,176.181035 1222.43536,184.622969 1230.36357,194.589607 C1238.29178,204.556245 1242.25582,216.775433 1242.25582,231.247537 C1242.25582,250.634695 1235.78577,266.653891 1222.84548,279.305604 C1209.81406,292.048337 1193.63894,298.419608 1174.31963,298.419608 C1156.00273,298.419608 1140.87557,293.004028 1128.9377,282.172705 C1117.18208,271.341382 1109.84632,256.09584 1106.9302,236.435623 L1139.18964,229.336136 C1140.6477,241.714791 1143.19927,250.270498 1146.84442,255.003513 C1153.4057,264.105466 1162.97408,268.656373 1175.54986,268.656373 C1185.4829,268.656373 1193.72994,265.334211 1200.29121,258.689785 C1206.85249,252.04536 1210.13307,243.626181 1210.13307,233.431994 C1210.13307,229.336116 1209.56353,225.581617 1208.42442,222.168385 C1207.28531,218.755153 1205.50832,215.615026 1203.09341,212.747911 C1200.67849,209.880796 1197.55738,207.195761 1193.72997,204.692724 C1189.90256,202.189687 1185.34618,199.80046 1180.06071,197.524972 L1159.69352,189.060199 C1130.80569,176.863583 1116.36198,159.024024 1116.36198,135.540987 C1116.36198,119.70359 1122.42196,106.460448 1134.54209,95.8111641 C1146.66223,85.0708604 1161.74382,79.7007892 1179.78733,79.7007892 C1204.11872,79.7007892 1223.1188,91.5331496 1236.78812,115.198225 Z M1305.54448,339 L1274.78865,339 L1274.78865,161.61795 L1305.54448,161.61795 L1305.54448,176.089982 C1317.66461,163.984385 1331.42486,157.931678 1346.82563,157.931678 C1365.14252,157.931678 1380.22411,164.667021 1392.07086,178.137911 C1404.09987,191.517781 1410.11428,208.401649 1410.11428,228.790022 C1410.11428,248.723297 1404.14543,265.334111 1392.20755,278.622961 C1380.36081,291.820792 1365.4159,298.419608 1347.3724,298.419608 C1331.78937,298.419608 1317.84687,292.184865 1305.54448,279.71519 L1305.54448,339 Z M1378.67499,228.92655 C1378.67499,216.183817 1375.21215,205.807747 1368.28636,197.798029 C1361.26944,189.697292 1352.43007,185.646984 1341.768,185.646984 C1330.46803,185.646984 1321.30972,189.560765 1314.2928,197.388443 C1307.27588,205.216122 1303.76747,215.501174 1303.76747,228.243907 C1303.76747,240.713582 1307.27588,250.998634 1314.2928,259.099371 C1321.21859,267.01807 1330.33134,270.97736 1341.63131,270.97736 C1352.29338,270.97736 1361.08718,266.972561 1368.01297,258.962843 C1375.12102,250.953125 1378.67499,240.941127 1378.67499,228.92655 Z M1604.76447,134.039172 L1596.15284,205.716688 C1595.78833,208.356254 1595.53773,210.882008 1595.40103,213.294026 C1595.26434,215.706043 1595.19599,217.958742 1595.19599,220.052191 C1595.19599,226.878656 1598.02094,230.291836 1603.67093,230.291836 C1611.59914,230.291836 1618.79821,224.69422 1625.26836,213.498818 C1631.64737,202.485456 1634.83683,189.92495 1634.83683,175.816924 C1634.83683,153.426122 1626.99987,135.085963 1611.32571,120.795898 C1595.74269,106.323794 1575.83134,99.0878505 1551.59107,99.0878505 C1526.25726,99.0878505 1504.93343,107.734575 1487.61896,125.028285 C1470.39561,142.230975 1461.78406,163.529223 1461.78406,188.92367 C1461.78406,202.940677 1464.8824,216.684418 1471.07916,230.155308 C1477.36705,242.807021 1486.16084,253.2286 1497.46082,261.420358 C1512.5882,272.3427 1531.54271,277.80379 1554.32492,277.80379 C1575.64907,277.80379 1597.97529,272.388209 1621.30427,261.556886 L1623.35466,260.464657 L1630.46267,280.124776 L1628.82236,280.943948 C1605.03774,292.412407 1580.25107,298.146551 1554.46161,298.146551 C1525.93829,298.146551 1502.0629,291.27468 1482.83472,277.530732 C1468.70975,267.518585 1457.68333,254.730534 1449.75512,239.166195 C1441.91804,222.782681 1437.99956,206.126359 1437.99956,189.196727 C1437.99956,158.341109 1448.88929,132.446443 1470.66908,111.511953 C1492.44887,90.5774631 1519.33147,80.110375 1551.31768,80.110375 C1580.75229,80.110375 1605.40227,89.1211725 1625.26836,107.143038 C1645.04331,124.982864 1654.93064,147.327822 1654.93064,174.178581 C1654.93064,194.931032 1649.55412,212.725082 1638.80092,227.561264 C1627.95659,242.579486 1615.24431,250.088484 1600.6637,250.088484 C1588.99921,250.088484 1581.07112,244.581885 1576.87919,233.568523 C1565.67035,245.036983 1553.18588,250.771127 1539.42543,250.771127 C1524.38918,250.771127 1511.85915,245.355546 1501.83498,234.524223 C1491.99307,223.783919 1487.07218,210.085687 1487.07218,193.429114 C1487.07218,175.498268 1492.5854,160.753327 1503.61198,149.193847 C1514.63857,137.361309 1528.48994,131.445129 1545.16652,131.445129 C1560.47616,131.445129 1572.82393,137.361309 1582.2102,149.193847 L1584.1239,134.039172 L1604.76447,134.039172 Z M1576.87919,186.739213 C1576.87919,178.274397 1574.00868,171.22049 1568.26756,165.577279 C1562.34419,159.934069 1555.14512,157.112506 1546.67014,157.112506 C1537.46613,157.112506 1529.94811,160.662214 1524.11587,167.761737 C1518.19249,174.77024 1515.23085,183.735529 1515.23085,194.657871 C1515.23085,204.123902 1517.60016,211.905954 1522.33886,218.004262 C1527.07756,224.10257 1533.1831,227.151679 1540.65567,227.151679 C1550.22419,227.151679 1558.65348,223.101371 1565.94379,215.000633 C1573.23409,206.899896 1576.87919,197.479516 1576.87919,186.739213 Z M1787.24903,64 L1818.14155,64 L1818.14155,294.596808 L1787.24903,294.596808 L1787.24903,280.67089 C1775.1289,292.503428 1761.41421,298.419608 1746.10457,298.419608 C1727.87881,298.419608 1712.75165,291.775283 1700.72264,278.486433 C1688.78477,264.924524 1682.81592,247.995147 1682.81592,227.697793 C1682.81592,207.855537 1688.78477,191.290232 1700.72264,178.001382 C1712.56939,164.621512 1727.46873,157.931678 1745.42111,157.931678 C1761.00414,157.931678 1774.94664,164.302949 1787.24903,177.045682 L1787.24903,64 Z M1714.25521,227.697793 C1714.25521,240.440526 1717.67249,250.816596 1724.50715,258.826314 C1731.52407,266.927052 1740.36343,270.97736 1751.0255,270.97736 C1762.41661,270.97736 1771.62048,267.063579 1778.6374,259.2359 C1785.65432,251.135162 1789.16273,240.850111 1789.16273,228.380436 C1789.16273,215.910761 1785.65432,205.62571 1778.6374,197.524972 C1771.62048,189.606274 1762.50773,185.646984 1751.29889,185.646984 C1740.72794,185.646984 1731.88858,189.651783 1724.78053,197.661501 C1717.76361,205.762238 1714.25521,215.774236 1714.25521,227.697793 Z M1955.10748,161.61795 L1986,161.61795 L1986,294.596808 L1955.10748,294.596808 L1955.10748,280.67089 C1942.44058,292.503428 1928.81702,298.419608 1914.23641,298.419608 C1895.82839,298.419608 1880.6101,291.775283 1868.5811,278.486433 C1856.64322,264.924524 1850.67437,247.995147 1850.67437,227.697793 C1850.67437,207.764518 1856.64322,191.153704 1868.5811,177.864854 C1880.51897,164.576003 1895.46388,157.931678 1913.41625,157.931678 C1928.90815,157.931678 1942.80509,164.302949 1955.10748,177.045682 L1955.10748,161.61795 Z M1882.11366,227.697793 C1882.11366,240.440526 1885.53094,250.816596 1892.3656,258.826314 C1899.38252,266.927052 1908.22188,270.97736 1918.88396,270.97736 C1930.27506,270.97736 1939.47893,267.063579 1946.49585,259.2359 C1953.51277,251.135162 1957.02118,240.850111 1957.02118,228.380436 C1957.02118,215.910761 1953.51277,205.62571 1946.49585,197.524972 C1939.47893,189.606274 1930.36619,185.646984 1919.15734,185.646984 C1908.5864,185.646984 1899.74704,189.651783 1892.63899,197.661501 C1885.62207,205.762238 1882.11366,215.774236 1882.11366,227.697793 Z" id="Ciel†Sp@da" fill="#2F2F2F"></path>
        <path d="M200.848,28 L356,183.151 L356,200.849 L200.848,356 L183.15,356 L28,200.849 L28,183.151 L183.15,28 L200.848,28 Z" id="Combined-Shape" fill="#2F2F2F" fill-rule="nonzero"></path>
        <g id="logo" transform="translate(68.000000, 68.000000)">
            <g transform="translate(124.206480, 124.206480) rotate(-315.000000) translate(-124.206480, -124.206480) translate(36.463623, 36.463623)" id="Combined-Shape">
                <polygon fill="#6FB7FF" fill-rule="nonzero" points="45.0571429 130.428571 116.990476 130.428571 116.990476 175.485714 -1.79733477e-13 175.485714 -1.79733477e-13 52.9619048 45.0571429 52.9619048"></polygon>
                <polygon fill="#5C6CD6" fill-rule="nonzero" points="130.428571 116.990476 58.4952381 116.990476 58.4952381 8.35760667e-12 103.552381 8.35760667e-12 103.552381 71.9333333 175.485714 71.9333333 175.485714 175.485714 130.428571 175.485714"></polygon>
            </g>
        </g>
    </g>
</svg>